<?xml version="1.0" standalone="no"?>
<!DOCTYPE svg PUBLIC "-//W3C//DTD SVG 20010904//EN"
 "http://www.w3.org/TR/2001/REC-SVG-20010904/DTD/svg10.dtd">
<svg version="1.0" xmlns="http://www.w3.org/2000/svg"
 width="200pt" height="200pt" viewBox="32 -2 186 200"
 preserveAspectRatio="xMidYMid meet">

<rect width="100%" height="100%" 
fill="#2cc4f9"/>
<g transform="translate(0.000000,200) scale(0.100000,-0.100000)"
fill="#1c4463" stroke="none">
<path d="M210 1158 l0 -933 52 85 c61 101 140 265 178 370 16 41 31 74 34 73
3 -2 15 -3 26 -3 15 0 20 -7 20 -28 0 -73 58 -207 118 -274 30 -34 150 -130
247 -197 11 -8 -28 35 -86 95 -58 60 -118 127 -131 149 -30 48 -79 180 -71
189 4 3 19 6 35 6 24 0 28 -4 28 -29 0 -16 18 -65 40 -109 44 -88 113 -160
199 -208 35 -20 47 -32 44 -45 -4 -15 5 -18 69 -21 118 -6 225 9 293 41 121
56 185 156 185 287 l0 66 35 -42 c19 -23 35 -39 35 -36 0 7 -102 177 -138 229
-45 66 -165 112 -497 188 -293 67 -411 126 -492 247 -54 81 -74 144 -80 262
-10 169 33 289 140 394 113 111 268 166 464 166 115 0 181 -10 358 -52 156
-37 222 -39 288 -10 74 33 82 22 34 -56 -22 -37 -66 -129 -98 -204 -32 -75
-68 -156 -80 -180 -12 -24 -21 -45 -20 -48 1 -2 -2 -6 -7 -8 -5 -1 -21 31 -36
72 -19 50 -32 73 -41 70 -7 -3 -34 14 -60 36 -138 119 -252 148 -397 100 -74
-25 -112 -57 -134 -116 -32 -84 1 -169 99 -255 34 -29 45 -45 38 -52 -16 -16
-13 -27 8 -27 40 0 412 -100 485 -130 193 -81 310 -212 347 -389 17 -82 7
-243 -20 -312 -47 -124 -175 -264 -293 -324 -175 -87 -360 -84 -738 11 -180
46 -269 49 -380 15 -49 -15 -76 -19 -78 -12 -2 6 -8 11 -13 11 -5 0 -9 -49 -9
-110 l0 -110 835 0 835 0 0 1045 0 1045 -835 0 -835 0 0 -932z m1534 820 c21
-9 23 -13 12 -22 -12 -10 -38 -63 -179 -367 -42 -91 -46 -96 -71 -92 -14 3
-26 11 -26 18 0 26 222 475 235 475 2 0 15 -5 29 -12z m-1188 -855 c25 -19 26
-21 7 -16 -64 16 22 -43 110 -75 31 -12 121 -38 200 -58 304 -76 433 -117 488
-155 43 -30 114 -128 101 -141 -8 -8 -26 2 -65 35 -76 66 -137 90 -374 151
-356 92 -451 126 -507 182 -23 24 -56 80 -56 97 0 13 71 -2 96 -20z m1213
-137 c70 -90 93 -156 99 -276 5 -125 -10 -197 -65 -310 -29 -60 -57 -95 -137
-175 -146 -145 -266 -201 -456 -212 -124 -7 -231 7 -442 58 -232 55 -319 60
-454 23 -15 -4 -23 0 -26 13 -3 10 -9 25 -12 34 -6 13 5 20 50 34 85 27 210
17 419 -33 276 -67 410 -75 575 -35 229 55 433 256 480 475 8 34 11 95 8 155
-6 117 -32 189 -104 291 l-48 66 36 -28 c20 -15 55 -51 77 -80z"/>
<path d="M912 1929 c-181 -30 -282 -129 -283 -275 -1 -95 30 -152 133 -245
l81 -74 -65 96 c-77 113 -92 153 -85 224 10 103 70 176 177 216 81 31 213 22
334 -21 50 -17 98 -36 108 -41 10 -5 18 -8 18 -5 0 10 -170 99 -222 117 -61
20 -110 22 -196 8z"/>
</g>
</svg>
